<svg xmlns="http://www.w3.org/2000/svg" width="24" height="31" fill="none"><ellipse cx="12" cy="30" fill="#000" fill-opacity=".1" rx="5" ry="1"/><path fill="#001333" d="M12 30 3.206 18h17.588z"/><path fill="#fff" d="M24 12c0 6.628-5.372 12-12 12-6.627 0-12-5.372-12-12C0 5.373 5.373 0 12 0c6.628 0 12 5.373 12 12"/><mask id="a" width="24" height="24" x="0" y="0" maskUnits="userSpaceOnUse" style="mask-type:alpha"><path fill="#fff" d="M24 12c0 6.628-5.372 12-12 12-6.627 0-12-5.372-12-12C0 5.373 5.373 0 12 0c6.628 0 12 5.373 12 12"/></mask><g mask="url(#a)"><path fill="#fff" d="M21.12 12A9.12 9.12 0 0 1 12 21.12v5.76c8.218 0 14.88-6.662 14.88-14.88zM12 21.12A9.12 9.12 0 0 1 2.88 12h-5.76c0 8.218 6.662 14.88 14.88 14.88zM2.88 12A9.12 9.12 0 0 1 12 2.88v-5.76C3.782-2.88-2.88 3.782-2.88 12zM12 2.88A9.12 9.12 0 0 1 21.12 12h5.76c0-8.218-6.662-14.88-14.88-14.88z"/></g><path fill="#e4012e" d="M11.494 22.073a11 11 0 0 1-.743-.066 10 10 0 0 1-4.53-1.746c-.76-.529-1.53-1.256-2.123-2.001a10.07 10.07 0 0 1-2.132-5.227 10.062 10.062 0 0 1 2.081-7.231c.48-.615 1.14-1.275 1.761-1.76a10.07 10.07 0 0 1 4.72-2.021c.81-.12 1.69-.138 2.505-.055 1.903.195 3.727.939 5.227 2.132.457.363 1.027.91 1.378 1.323q2.11 2.479 2.411 5.708c.03.313.04 1.09.02 1.425a10 10 0 0 1-.848 3.525 10.16 10.16 0 0 1-3.613 4.297c-1.5 1.008-3.2 1.58-5.02 1.692-.2.012-.937.016-1.094.005m4.314-3.911a.23.23 0 0 0 .084-.09l.032-.06-.004-.906c-.003-.878-.004-.907-.03-.952a.3.3 0 0 0-.066-.074l-.038-.028-2.474-.004c-2.304-.003-2.475-.005-2.49-.026-.014-.018-.017-1.048-.017-5.046 0-4.958 0-5.024-.027-5.066a.3.3 0 0 0-.08-.073l-.053-.03-1.066.004-1.066.003-.047.037a.3.3 0 0 0-.07.083c-.02.043-.022.52-.022 6.143 0 3.354.004 6.101.009 6.106s1.665.01 3.69.01l3.682-.001z"/></svg>
