<svg xmlns="http://www.w3.org/2000/svg" width="32" height="32" fill="none"><path fill="url(#a)" d="M16 29c7.18 0 13-5.82 13-13S23.18 3 16 3 3 8.82 3 16s5.82 13 13 13"/><path stroke="#000" stroke-opacity=".1" d="M16 2.5c7.456 0 13.5 6.044 13.5 13.5S23.456 29.5 16 29.5 2.5 23.456 2.5 16 8.544 2.5 16 2.5Z"/><path fill="#082f49" d="M16.004 10.528h3.212c.67 0 1.219.209 1.219 3.351v2.744c.005.713-.563 1.029-1.025 1.15 0 0-1.299.347-3.41.35-2.112-.003-3.41-.35-3.41-.35-.462-.121-1.03-.437-1.025-1.15V13.88c0-3.142.55-3.351 1.219-3.351zm3.304 11c-.614 0-1.112-.525-1.112-1.173s.498-1.173 1.112-1.173 1.111.525 1.111 1.173-.497 1.173-1.111 1.173m-6.616 0c-.614 0-1.111-.525-1.111-1.173s.497-1.173 1.111-1.173 1.112.525 1.112 1.173-.498 1.173-1.112 1.173m3.304-12.922h2.495c.119 0 .216.102.216.228v.817a.223.223 0 0 1-.216.228H13.51a.223.223 0 0 1-.216-.228v-.817c0-.126.097-.228.216-.228zm.008 14.15h3.673s.04 1.214.822 1.244h.69c.35 0 .741-.352.741-.939 0 0-.017-7.783-.023-8.18a.4.4 0 0 0 .185.042h.459c.247 0 .449-.213.449-.474v-1.982a.464.464 0 0 0-.45-.474h-.458a.43.43 0 0 0-.278.104c-.025-.958-.05-1.657-.05-1.657 0-1.105-1.03-2.438-2.325-2.438L16 8l-3.44.002c-1.293 0-2.323 1.333-2.323 2.438 0 0-.025.699-.051 1.657a.43.43 0 0 0-.278-.104H9.45a.464.464 0 0 0-.449.474v1.982c0 .26.202.474.45.474h.458a.4.4 0 0 0 .185-.043c-.006.397-.024 8.181-.024 8.181 0 .587.393.939.743.939h.689c.781-.03.822-1.243.822-1.243z"/><defs><linearGradient id="a" x1="16" x2="16" y1="3" y2="29" gradientUnits="userSpaceOnUse"><stop stop-color="#fff"/><stop offset="1" stop-color="#eee"/></linearGradient></defs></svg>
