<svg xmlns="http://www.w3.org/2000/svg" width="24" height="31" fill="none"><ellipse cx="12" cy="30" fill="#000" fill-opacity=".1" rx="5" ry="1"/><path fill="#001333" d="M12 30 3.206 18h17.588z"/><circle cx="12" cy="12" r="12" fill="#082f49"/><path fill="#fff" fill-rule="evenodd" d="M12 4c.207 0 .449.016.711.046l.662.103c1.616.31 3.575 1.114 3.608 2.464.042 1.782 0 7.064 0 7.064.053.445-.053 1.054-.212 1.555s-.688 1.445-1.537 1.445h-.519l1.835 2.892a.528.528 0 0 1-.446.813.53.53 0 0 1-.447-.244l-.5-.78-.07-.11H8.915l-.07.11-.499.78a.53.53 0 0 1-.893-.569l1.835-2.892h-.519c-.848 0-1.378-.945-1.537-1.445s-.265-1.11-.212-1.555c0 0-.043-5.282 0-7.064.032-1.35 1.991-2.153 3.607-2.464l.662-.103A6 6 0 0 1 11.999 4m2.185 6.973H9.814c-.33 0-1.457-1.006-1.504-1.332l-.358-2.46a.505.505 0 0 1 .515-.592h7.065c.33 0 .562.266.514.592l-.357 2.46c-.047.326-1.173 1.332-1.504 1.332m-3.962 6.206.275-.433q.018-.03.03-.06l.005-.009h2.934q.014.036.034.07l.275.432zm4.445 1.409H9.332l.474-.749h4.387zM12 14c.276 0 1-.724 1-1s-.724-1-1-1-1 .724-1 1 .724 1 1 1" clip-rule="evenodd"/></svg>
