<svg xmlns="http://www.w3.org/2000/svg" width="24" height="31" fill="none"><ellipse cx="12" cy="30" fill="#000" fill-opacity=".1" rx="5" ry="1"/><path fill="#001333" d="M12 30 3.206 18h17.588z"/><circle cx="12" cy="12" r="12" fill="#082f49"/><path fill="#fff" d="M8.368 3.016a.5.5 0 0 0-.117.094c-.084.089-.092.266-.013.353.11.125.162.13 1.131.13h.912l.669 1.005c.371.553.672 1.01.672 1.018s-.487.013-1.077.013c-.593 0-1.207.013-1.367.026-.938.089-1.67.627-2.007 1.478-.182.456-.177.315-.167 4.5.008 3.338.013 3.769.052 3.949.204.981.557 1.652 1.208 2.302.595.598 1.21.948 2.012 1.146.45.112.674.125 1.868.115 1.027-.01 1.131-.016 1.393-.068a4.32 4.32 0 0 0 3.313-3.096c.144-.53.136-.34.146-4.322.008-2.67.003-3.762-.018-3.942a2.34 2.34 0 0 0-1.64-1.968c-.314-.1-.662-.12-1.872-.12a20 20 0 0 1-1.079-.01c-.005-.006.29-.465.661-1.018l.672-1.005.961-.008.965-.008.083-.086c.07-.07.086-.105.086-.201s-.015-.13-.086-.201l-.083-.086L12.032 3c-1.986-.003-3.635.005-3.664.015m4.623.608c-.04.068-.96 1.444-.975 1.465-.016.015-.536-.742-.98-1.425l-.047-.071h1.009c.802 0 1.008.008.993.031m2.333 3.85a.6.6 0 0 1 .27.308c.075.196.067.225-.667 2.82-.047.172-.253.905-.457 1.63-.215.76-.405 1.395-.455 1.502a1.76 1.76 0 0 1-1.155.953c-.175.044-.29.052-.857.052-.719 0-.852-.019-1.15-.154a1.7 1.7 0 0 1-.758-.65c-.125-.196-.209-.415-.34-.893-.049-.18-.214-.772-.368-1.318s-.342-1.222-.42-1.501l-.369-1.305q-.224-.795-.225-.93c0-.25.152-.461.392-.547.081-.03.667-.034 3.275-.03l3.174.006zm-6.616 6.453c.12.055.232.162.295.277.066.12.058.391-.015.53-.176.334-.682.404-.939.13-.344-.37-.088-.987.41-.987.084 0 .189.021.249.05m7.086.016a.566.566 0 0 1 .267.744.55.55 0 0 1-.235.276c-.48.248-1.017-.185-.85-.686a.584.584 0 0 1 .818-.334m-6.762 1.761a.577.577 0 0 1-.005 1.032.58.58 0 1 1 .005-1.031m6.441-.02c.366.188.46.61.204.908a.578.578 0 0 1-1.02-.324c-.023-.292.14-.522.44-.618a.74.74 0 0 1 .376.034M8.206 19.012c-.648 1.002-.66 1.026-.66 1.161 0 .149.044.25.156.342.225.19.499.125.69-.162.112-.17.669-1.03.703-1.09.013-.019-.047-.066-.157-.129a5 5 0 0 1-.369-.224 3 3 0 0 0-.2-.125 2 2 0 0 0-.163.227M15.437 18.905a6 6 0 0 1-.361.224c-.12.065-.18.115-.17.133.196.324.76 1.175.82 1.238.071.073.168.112.298.125.071.008.217-.052.283-.112a.42.42 0 0 0 .149-.34c0-.12-.024-.164-.398-.749-.219-.342-.41-.626-.425-.629-.013-.005-.102.044-.196.11"/></svg>
