<svg xmlns="http://www.w3.org/2000/svg" width="24" height="31" fill="none"><ellipse cx="12" cy="30" fill="#000" fill-opacity=".1" rx="5" ry="1"/><path fill="#001333" d="M12 30 3.206 18h17.588z"/><circle cx="12" cy="12" r="12" fill="#fd0"/><path fill="#001231" d="M16.293 13.99c0 .264-.043.792-.308.704-.266-.089-.884-.572-.884-.837v-1.056c0-.308.51-.491.795-.704.176-.132.397-.132.397.22zm-2.108-2.4H9.814c-.33 0-1.457-1.005-1.504-1.331l-.358-2.46a.505.505 0 0 1 .515-.593h7.065c.33 0 .562.267.514.593l-.357 2.46c-.047.325-1.173 1.332-1.504 1.332m-3.962 6.206.275-.433q.02-.033.035-.069h2.934a1 1 0 0 0 .034.07l.275.432zM12 19.206H9.332l.474-.749h4.387l.475.749zm-3.101-5.349c0 .264-.619.748-.883.837-.265.087-.31-.44-.31-.705v-1.673c0-.351.222-.351.398-.22.285.214.795.397.795.705zM12 3.814h1.262l-.55.85a6 6 0 0 0-.713-.046 6 6 0 0 0-.711.046l-.55-.85zm4.98 3.417c-.032-1.35-1.99-2.154-3.607-2.464l.616-.953h1.43a.408.408 0 1 0 0-.814H8.58a.408.408 0 1 0 0 .814h1.43l.617.953C9.01 5.077 7.051 5.88 7.02 7.23c-.043 1.782 0 7.063 0 7.063-.053.446.053 1.055.212 1.556.159.5.689 1.445 1.537 1.445h.519l-1.835 2.892a.527.527 0 0 0 .446.813.53.53 0 0 0 .447-.244l.394-.615.106-.165.069-.11h6.172l.07.11.105.165.394.615a.53.53 0 0 0 .893-.569l-1.835-2.892h.52c.848 0 1.377-.945 1.536-1.445s.265-1.11.212-1.556c0 0 .043-5.281 0-7.063"/></svg>
