<svg xmlns="http://www.w3.org/2000/svg" width="24" height="31" fill="none"><ellipse cx="12" cy="30" fill="#000" fill-opacity=".1" rx="5" ry="1"/><path fill="#001333" d="M12 30 3.206 18h17.588z"/><circle cx="12" cy="12" r="12" fill="#fd0"/><path fill="#001231" d="M15.415 11.201c-.087-.02-.962-.182-1.494-.182h-3.842c-.531 0-1.407.162-1.494.182s-.208 0-.19-.142c0 0 .051-.808.069-.95.017-.14-.052-.322.208-.343 0 0 .976-.222 1.494-.222h3.669c.518 0 1.493.222 1.493.222.26.02.191.202.209.344s.07.95.07.95c.016.141-.105.16-.192.141m-2.366 5.66c-.361.16-.705.235-1.049.23a2.5 2.5 0 0 1-1.048-.23c-.766-.338-1.355-.399-1.998-.161l.15-.45s.016-.146.217-.345c.201-.2.558-.189.558-.189h4.243s.356-.01.557.189.218.345.218.345l.15.45c-.644-.238-1.233-.177-1.998.16M8.788 8.095s.047-.721.062-.847c.015-.127-.046-.289.186-.307 0 0 .87-.199 1.333-.199h3.262c.463 0 1.333.2 1.333.2.233.017.17.18.186.306s.062.847.062.847c.016.126-.092.144-.17.126s-.86-.162-1.333-.162h-3.417c-.474 0-1.256.144-1.334.162-.077.018-.186 0-.17-.126m8.582 8.816a1.5 1.5 0 0 1-.379.13l1.184-4.386v-.088c0-.414-.42-.754-.831-.801h-.002c-.031-.003-.428-.1-.428-.1l-.233-1.79-.005-.045h-.003l-.575-2.954-.116-.443h-.008a.595.595 0 0 0-.516-.475h-.005l-.012-.002-3.194-.36h-.002l-.098-1.448A.15.15 0 0 0 12 4a.15.15 0 0 0-.147.15l-.098 1.447h-.002l-3.194.36-.012.001h-.005a.595.595 0 0 0-.516.476h-.007l-.117.443-.576 2.954h-.003l-.004.045-.233 1.79s-.397.097-.428.1h-.002c-.411.047-.831.387-.831.8v.089l1.184 4.387a1.5 1.5 0 0 1-.38-.13c-.98-.505-1.68-.599-2.458-.123-.365.192-.102.846.369.698.434-.136 1.03-.18 1.725.17.884.447 1.633.447 2.382.059.75-.389 1.165-.459 2.075-.068.433.219.864.32 1.278.32a2.84 2.84 0 0 0 1.278-.32c.91-.39 1.325-.32 2.074.068.75.388 1.499.388 2.382-.058.696-.352 1.292-.308 1.726-.171.47.148.734-.506.369-.698-.779-.476-1.479-.382-2.459.122"/></svg>
