<svg xmlns="http://www.w3.org/2000/svg" width="24" height="31" fill="none"><ellipse cx="12" cy="30" fill="#000" fill-opacity=".1" rx="5" ry="1"/><path fill="#001333" d="M12 30 3.206 18h17.588z"/><path fill="#fff" d="M12 0C5.383 0 0 5.383 0 12s5.383 12 12 12 12-5.383 12-12S18.617 0 12 0"/><path fill="#06969f" d="M12 22C6.486 22 2 17.514 2 12S6.486 2 12 2s10 4.486 10 10-4.486 10-10 10"/><path fill="#fff" d="M17.653 6.002h-2.915c-.119 0-.204.05-.255.186l-1.745 6.137c-.34 1.204-.645 2.712-.763 3.916v-.002l-.002-.022v.003c-.12-1.2-.424-2.698-.761-3.895L9.466 6.188c-.051-.135-.136-.186-.255-.186H6.296c-.17 0-.238.136-.238.254v11.917c0 .136.102.238.22.238h1.73c.102 0 .22-.085.22-.238v-7.51c0-.898-.101-1.66-.152-2.288.017.034.017.068.034.102l2.525 9.747c.034.102.085.187.238.187h2.203c.153 0 .204-.085.238-.187l2.526-9.747c.017-.034.017-.068.034-.102-.051.628-.153 1.39-.153 2.289v7.51c0 .152.119.237.22.237h1.73c.118 0 .22-.102.22-.238V6.256c0-.118-.068-.254-.238-.254"/></svg>
