<svg xmlns="http://www.w3.org/2000/svg" width="24" height="31" fill="none"><ellipse cx="12" cy="30" fill="#000" fill-opacity=".1" rx="5" ry="1"/><path fill="#001333" d="M12 30 3.206 18h17.588z"/><path fill="#fff" d="M24 12c0 6.628-5.372 12-12 12-6.627 0-12-5.372-12-12C0 5.373 5.373 0 12 0c6.628 0 12 5.373 12 12"/><mask id="a" width="24" height="24" x="0" y="0" maskUnits="userSpaceOnUse" style="mask-type:alpha"><path fill="#fff" d="M24 12c0 6.628-5.372 12-12 12-6.627 0-12-5.372-12-12C0 5.373 5.373 0 12 0c6.628 0 12 5.373 12 12"/></mask><g mask="url(#a)"><path fill="#fff" d="M21.12 12A9.12 9.12 0 0 1 12 21.12v5.76c8.218 0 14.88-6.662 14.88-14.88zM12 21.12A9.12 9.12 0 0 1 2.88 12h-5.76c0 8.218 6.662 14.88 14.88 14.88zM2.88 12A9.12 9.12 0 0 1 12 2.88v-5.76C3.782-2.88-2.88 3.782-2.88 12zM12 2.88A9.12 9.12 0 0 1 21.12 12h5.76c0-8.218-6.662-14.88-14.88-14.88z"/></g><path fill="#722a8f" d="m11.274 22.06-.335-.031c-.878-.077-1.999-.36-2.857-.723a10.2 10.2 0 0 1-5.192-4.934 9.9 9.9 0 0 1-.964-3.658 14 14 0 0 1 .033-1.828c.187-1.614.705-3.064 1.566-4.383 1.533-2.347 3.97-3.961 6.699-4.435.58-.101.83-.123 1.552-.135.958-.017 1.515.031 2.333.202 3.705.77 6.72 3.659 7.662 7.339.42 1.644.416 3.47-.014 5.108-.665 2.535-2.33 4.736-4.613 6.1-1.3.776-2.797 1.25-4.33 1.37-.253.02-1.383.026-1.54.008m1.249-3.882a4.3 4.3 0 0 0 1.762-.565c.51-.307.995-.787 1.313-1.296.23-.37.411-.833.417-1.064.005-.208.012-.204-.822-.543-.404-.164-.776-.304-.827-.311-.12-.017-.27.04-.331.124a1.6 1.6 0 0 0-.117.274c-.148.437-.284.666-.537.906a1.65 1.65 0 0 1-.726.392c-.185.048-.255.055-.568.056-.26.001-.4-.009-.515-.035-.857-.197-1.356-.8-1.51-1.823-.05-.324-.049-3.936 0-4.265.087-.584.267-1.006.569-1.331.215-.232.465-.385.8-.488.18-.056.213-.06.634-.06.398 0 .463.005.628.05.635.172 1 .54 1.227 1.235.041.126.09.251.108.278.05.078.16.135.26.135.101 0 1.54-.432 1.626-.488.167-.11.176-.313.031-.744-.196-.584-.468-1.032-.868-1.432-.469-.468-.989-.753-1.693-.926-.451-.112-.726-.141-1.308-.14-.564 0-.862.03-1.31.13C9.17 6.6 8.141 7.653 7.818 9.261c-.106.531-.111.688-.103 3.15.008 2.03.012 2.296.046 2.499.161.975.472 1.645 1.012 2.184.444.444.99.74 1.696.92.625.16 1.44.224 2.053.163"/></svg>
