<svg xmlns="http://www.w3.org/2000/svg" width="24" height="31" fill="none"><ellipse cx="12" cy="30" fill="#000" fill-opacity=".1" rx="5" ry="1"/><path fill="#001333" d="M12 30 3.206 18h17.588z"/><circle cx="12" cy="12" r="12" fill="#082f49"/><path fill="#fff" d="M12.004 6.528h3.212c.67 0 1.219.209 1.219 3.351v2.744c.005.713-.563 1.029-1.025 1.15 0 0-1.299.347-3.41.35-2.112-.003-3.41-.35-3.41-.35-.462-.121-1.03-.437-1.025-1.15V9.88c0-3.142.55-3.351 1.219-3.351zm3.304 11c-.614 0-1.112-.525-1.112-1.173s.498-1.173 1.112-1.173 1.111.525 1.111 1.173-.497 1.173-1.111 1.173m-6.616 0c-.614 0-1.111-.525-1.111-1.173s.497-1.173 1.111-1.173 1.112.525 1.112 1.173-.498 1.173-1.112 1.173m3.304-12.922h2.495c.119 0 .216.102.216.228v.817a.223.223 0 0 1-.216.228H9.51a.223.223 0 0 1-.216-.228v-.817c0-.126.097-.228.216-.228zm.008 14.15h3.673s.04 1.214.822 1.244h.69c.35 0 .741-.352.741-.939 0 0-.017-7.783-.023-8.18a.4.4 0 0 0 .185.042h.459c.247 0 .449-.213.449-.474V8.467a.464.464 0 0 0-.45-.474h-.458a.43.43 0 0 0-.278.104c-.025-.958-.05-1.657-.05-1.657 0-1.105-1.03-2.438-2.325-2.438L12 4l-3.44.002c-1.293 0-2.323 1.333-2.323 2.438 0 0-.025.699-.051 1.657a.43.43 0 0 0-.278-.104H5.45A.464.464 0 0 0 5 8.467v1.982c0 .26.202.474.45.474h.458a.4.4 0 0 0 .185-.043c-.006.397-.024 8.181-.024 8.181 0 .587.393.939.743.939H7.5c.781-.03.822-1.243.822-1.243z"/></svg>
